<svg xmlns="http://www.w3.org/2000/svg" viewBox="0 0 1024 1024" role="img" aria-label="PiBells logo">
  <defs>
    <linearGradient id="bg" x1="120" y1="80" x2="900" y2="940" gradientUnits="userSpaceOnUse">
      <stop offset="0" stop-color="#0f766e"/>
      <stop offset="1" stop-color="#2dd4bf"/>
    </linearGradient>
  </defs>
  <rect width="1024" height="1024" rx="210" fill="url(#bg)"/>
  <path d="M248 248c0-76 62-138 138-138h252c76 0 138 62 138 138v210h18v286l40 82H190l40-82V458h18V248Z" fill="#f8fafc"/>
  <path d="M438 132h148v150H438z" rx="74" fill="#f8fafc"/>
  <path d="M474 106h76v76h-76z" rx="38" fill="#f8fafc"/>
  <path d="M394 654h236v52H394z" rx="26" fill="#12232c"/>
  <circle cx="512" cy="842" r="60" fill="#f59e0b"/>
  <path d="M252 668a220 220 0 0 1 0-312" fill="none" stroke="#f8fafc" stroke-width="36" stroke-linecap="round"/>
  <path d="M772 356a220 220 0 0 1 0 312" fill="none" stroke="#f8fafc" stroke-width="36" stroke-linecap="round"/>
  <path d="M315 610a140 140 0 0 1 0-196" fill="none" stroke="#f59e0b" stroke-width="26" stroke-linecap="round"/>
  <path d="M709 414a140 140 0 0 1 0 196" fill="none" stroke="#f59e0b" stroke-width="26" stroke-linecap="round"/>
  <circle cx="734" cy="210" r="28" fill="#f59e0b"/>
  <path d="M638 244l82-34" fill="none" stroke="#f59e0b" stroke-width="18" stroke-linecap="round"/>
</svg>
