<?xml version="1.0" standalone="no"?>
<!DOCTYPE svg PUBLIC "-//W3C//DTD SVG 20010904//EN"
 "http://www.w3.org/TR/2001/REC-SVG-20010904/DTD/svg10.dtd">
<svg version="1.0" xmlns="http://www.w3.org/2000/svg"
 width="1024.000000pt" height="1024.000000pt" viewBox="0 0 1024.000000 1024.000000"
 preserveAspectRatio="xMidYMid meet">
<metadata>
Created by potrace 1.16, written by Peter Selinger 2001-2019
</metadata>
<g transform="translate(0.000000,1024.000000) scale(0.100000,-0.100000)"
fill="#000000" stroke="none">
<path d="M4985 9406 c-213 -50 -372 -171 -460 -351 -35 -70 -69 -184 -60 -194
3 -3 56 5 118 17 188 37 244 43 452 49 228 6 385 -5 573 -42 70 -14 134 -25
143 -25 26 0 5 90 -47 199 -102 214 -311 348 -559 357 -63 2 -122 -1 -160 -10z"/>
<path d="M4905 8784 c-379 -48 -609 -112 -873 -244 -305 -153 -555 -358 -735
-603 -192 -261 -325 -576 -373 -887 -14 -88 -18 -242 -24 -950 -6 -702 -10
-862 -23 -948 -78 -493 -267 -810 -657 -1099 -279 -207 -422 -387 -503 -634
-74 -223 -59 -486 39 -686 105 -217 465 -356 879 -340 126 5 276 21 314 33 8
3 -28 20 -81 38 -103 35 -169 70 -224 118 -48 42 -64 77 -64 140 0 44 5 60 29
89 76 92 316 164 756 228 217 32 286 39 490 56 363 28 533 37 831 43 l299 7 3
1039 c1 572 -1 1043 -5 1047 -5 4 -48 17 -98 28 -342 75 -620 274 -794 567
-162 274 -196 650 -89 969 74 222 219 420 412 564 130 97 357 190 502 207 30
4 58 12 64 19 7 8 9 214 8 606 l-3 594 -25 1 c-14 1 -38 0 -55 -2z"/>
<path d="M5255 8778 c-3 -7 -4 -281 -3 -608 l3 -595 57 -7 c130 -16 294 -75
416 -149 454 -275 664 -800 530 -1324 -27 -108 -116 -293 -185 -385 -180 -241
-418 -391 -722 -454 l-106 -22 -3 -1046 -2 -1045 292 -7 c266 -6 470 -15 723
-31 146 -10 458 -44 631 -70 625 -93 831 -202 744 -392 -32 -72 -201 -176
-323 -198 -21 -4 -35 -11 -30 -15 4 -5 71 -15 149 -24 518 -59 920 68 1054
334 86 171 108 405 57 614 -69 279 -216 478 -522 706 -408 304 -592 621 -666
1150 -8 56 -14 377 -19 950 -5 529 -12 885 -18 917 -22 108 -83 324 -112 400
-106 266 -301 554 -494 727 -362 324 -785 510 -1296 572 -143 17 -150 17 -155
2z"/>
<path d="M5060 6829 l0 -554 48 50 c285 303 697 754 697 764 0 4 -28 31 -61
59 -177 147 -358 220 -566 229 l-118 5 0 -553z"/>
<path d="M4405 2970 c-24 -39 70 -265 152 -363 139 -167 353 -267 565 -267
304 1 591 213 684 505 13 42 24 88 24 103 l0 28 -709 2 c-488 2 -711 -1 -716
-8z"/>
<path d="M3518 2545 c-69 -47 -100 -127 -73 -190 22 -53 133 -174 245 -268
339 -284 772 -466 1205 -507 681 -64 1337 170 1788 639 123 127 143 187 91
266 -37 57 -70 78 -130 83 -59 5 -106 -17 -145 -66 -11 -15 -53 -55 -92 -90
-262 -231 -596 -390 -962 -458 -139 -26 -497 -26 -635 -1 -401 74 -740 237
-1008 486 -51 47 -106 96 -124 109 -43 31 -111 30 -160 -3z"/>
<path d="M2953 2110 c-29 -13 -52 -34 -73 -66 -40 -63 -40 -114 -2 -175 59
-90 247 -274 442 -431 25 -20 111 -79 191 -131 481 -316 1044 -487 1602 -487
201 0 311 10 512 46 615 110 1182 414 1611 863 117 123 144 164 144 223 0 108
-88 188 -190 173 -40 -6 -57 -19 -185 -144 -309 -301 -602 -489 -979 -625
-289 -105 -584 -156 -906 -156 -721 0 -1390 278 -1896 788 -144 144 -184 162
-271 122z"/>
</g>
</svg>
